<svg xmlns="http://www.w3.org/2000/svg" style="display:none">

  <symbol id="atras" viewBox="0 0 20 31">
    <path d="M0.680984 13.8536L13.8409 0.682755C14.7505 -0.227585 16.2213 -0.227585 17.1213 0.682755L19.3081 2.87145C20.2177 3.78179 20.2177 5.25383 19.3081 6.15448L9.98972 15.5L19.3178 24.8358C20.2274 25.7462 20.2274 27.2182 19.3178 28.1189L17.1309 30.3172C16.2213 31.2276 14.7505 31.2276 13.8506 30.3172L0.690661 17.1464C-0.228601 16.236 -0.228601 14.764 0.680984 13.8536Z" fill="currentColor"/>
  </symbol>

  <symbol id="calendario" viewBox="0 0 40 40">
    <path d="M0 36.25C0 38.3203 1.91964 40 4.28571 40H35.7143C38.0804..." fill="currentColor"/>
  </symbol>

  <symbol id="user" viewBox="0 0 40 40">
    <path d="M20 0C8.95161 0 0 8.95161 0 20C0 31.0484..." fill="currentColor"/>
  </symbol>

  <symbol id="home" viewBox="0 0 40 40">
    <path d="M19.4697 10.3771L6.66719 23.9366V38.5713..." fill="currentColor"/>
  </symbol>

</svg>
<svg :width="computedSize" :height="computedSize" :fill="computedColor">
  <use :href="`#${name}`"></use>
</svg>
